<?xml version="1.0" encoding="UTF-8" standalone="no"?>
<!DOCTYPE svg PUBLIC "-//W3C//DTD SVG 1.1//EN" "http://www.w3.org/Graphics/SVG/1.1/DTD/svg11.dtd">
<svg version="1.1" xmlns="http://www.w3.org/2000/svg" xmlns:dc="http://purl.org/dc/elements/1.1/" xmlns:xl="http://www.w3.org/1999/xlink" viewBox="-509 -301 744 307" width="744" height="307">
  <defs>
    <linearGradient x1="0" x2="1" id="Gradient" gradientUnits="userSpaceOnUse">
      <stop offset="0" stop-color="#c0c0ff"/>
      <stop offset="1" stop-color="#dadada"/>
    </linearGradient>
    <linearGradient id="Obj_Gradient" xl:href="#Gradient" gradientTransform="translate(132.5 -239) rotate(90) scale(123)"/>
    <marker orient="auto" overflow="visible" markerUnits="strokeWidth" id="FilledArrow_Marker" stroke-linejoin="miter" stroke-miterlimit="10" viewBox="-1 -2 5 4" markerWidth="5" markerHeight="4" color="#76d6ff">
      <g>
        <path d="M 2.4 0 L 0 -.9 L 0 .9 Z" fill="currentColor" stroke="currentColor" stroke-width="1"/>
      </g>
    </marker>
  </defs>
  <g id="Canvas_1" fill="none" stroke-opacity="1" stroke="none" fill-opacity="1" stroke-dasharray="none">
    <title>Canvas 1</title>
    <g id="Canvas_1_Layer_1">
      <title>Layer 1</title>
      <g id="Graphic_227">
        <path d="M 35 -239 L 230 -239 C 232.76142 -239 235 -236.76142 235 -234 L 235 -121 C 235 -118.23858 232.76142 -116 230 -116 L 35 -116 C 32.238576 -116 30 -118.23858 30 -121 L 30 -234 C 30 -236.76142 32.238576 -239 35 -239 Z" fill="url(#Obj_Gradient)"/>
        <text transform="translate(35 -139.448)" fill="black">
          <tspan font-family="Helvetica Neue" font-size="16" fill="black" x="54.388" y="15" xml:space="preserve">Mon logiciel</tspan>
        </text>
      </g>
      <g id="Group_56">
        <g id="Graphic_77"/>
        <g id="Graphic_76">
          <path d="M -324 -293 L -341.33333 -283 L -341.33333 -237.33333 L -324 -227.33333 L -324 -236 L -334 -241.66667 L -334 -278.66667 L -324 -284.33333 Z" fill="#5c85de"/>
        </g>
        <g id="Graphic_75">
          <path d="M -341.33333 -274.33333 L -341.33333 -246 L -334 -241.66667 L -334 -278.66667 Z" fill="#3367d6"/>
        </g>
        <g id="Graphic_74">
          <path d="M -341.33333 -274.33333 L -334 -276 L -334 -278.66667 Z" fill="#3367d6"/>
        </g>
        <g id="Graphic_73">
          <path d="M -284 -293 L -284 -284.33333 L -274 -278.66667 L -274 -241.66667 L -284 -236 L -284 -227.33333 L -266.66667 -237.33333 L -266.66667 -283 Z" fill="#5c85de"/>
        </g>
        <g id="Graphic_72">
          <path d="M -274 -241.66667 L -266.66667 -246 L -266.66667 -274.33333 L -274 -278.66667 Z" fill="#3367d6"/>
        </g>
        <g id="Graphic_71">
          <path d="M -274 -276 L -266.66667 -274.33333 L -274 -278.66667 Z" fill="#3367d6"/>
        </g>
        <g id="Graphic_70">
          <path d="M -274 -244 L -274 -241.66667 L -266.66667 -246 Z" fill="#3367d6"/>
        </g>
        <g id="Group_57">
          <g id="Group_66">
            <g id="Graphic_69">
              <path d="M -304 -282.66667 L -314 -277.33333 L -304 -272 L -294 -277.33333 Z" fill="#5c85de"/>
            </g>
            <g id="Graphic_68">
              <path d="M -302.66667 -259.66667 L -293 -265 L -293 -275.33333 L -302.66667 -270 Z" fill="#3367d6"/>
            </g>
            <g id="Graphic_67">
              <path d="M -305 -270 L -315 -275.33333 L -315 -265 L -305 -259.66667 Z" fill="#3367d6"/>
            </g>
          </g>
          <g id="Group_62">
            <g id="Graphic_65">
              <path d="M -315.46667 -263.07937 L -325.13333 -257.74603 L -315.46667 -252.4127 L -306.13333 -257.74603 Z" fill="#5c85de"/>
            </g>
            <g id="Graphic_64">
              <path d="M -314.8 -240.07937 L -305.13333 -245.4127 L -305.13333 -256.07937 L -314.8 -250.74603 Z" fill="#3367d6"/>
            </g>
            <g id="Graphic_63">
              <path d="M -316.46667 -250.74603 L -326.13333 -256.07937 L -326.13333 -245.4127 L -316.46667 -240.07937 Z" fill="#3367d6"/>
            </g>
          </g>
          <g id="Group_58">
            <g id="Graphic_61">
              <path d="M -292.26667 -263.07937 L -301.93333 -257.74603 L -292.26667 -252.4127 L -282.6 -257.74603 Z" fill="#5c85de"/>
            </g>
            <g id="Graphic_60">
              <path d="M -291.26667 -240.07937 L -281.6 -245.4127 L -281.6 -256.07937 L -291.26667 -250.74603 Z" fill="#3367d6"/>
            </g>
            <g id="Graphic_59">
              <path d="M -293.26667 -250.74603 L -302.93333 -256.07937 L -302.93333 -245.4127 L -293.26667 -240.07937 Z" fill="#3367d6"/>
            </g>
          </g>
        </g>
      </g>
      <g id="Line_96">
        <line x1="-423" y1="-36.166627" x2="-358.09897" y2="-35.12943" marker-end="url(#FilledArrow_Marker)" stroke="#76d6ff" stroke-linecap="square" stroke-linejoin="bevel" stroke-width="2"/>
      </g>
      <g id="Line_115">
        <line x1="-423" y1="-262.3203" x2="-358.09897" y2="-261.28312" marker-end="url(#FilledArrow_Marker)" stroke="#76d6ff" stroke-linecap="square" stroke-linejoin="bevel" stroke-width="2"/>
      </g>
      <g id="Line_134">
        <line x1="-253" y1="-36" x2="-167.09938" y2="-37.066106" marker-end="url(#FilledArrow_Marker)" stroke="#76d6ff" stroke-linecap="square" stroke-linejoin="bevel" stroke-width="2"/>
      </g>
      <g id="Line_154">
        <line x1="-261.47266" y1="-188.16663" x2="-191.62644" y2="-187.12122" marker-end="url(#FilledArrow_Marker)" stroke="#76d6ff" stroke-linecap="square" stroke-linejoin="bevel" stroke-width="2"/>
      </g>
      <g id="Line_155">
        <line x1="-249.49204" y1="-275" x2="-197.64598" y2="-221.6661" marker-end="url(#FilledArrow_Marker)" stroke="#76d6ff" stroke-linecap="square" stroke-linejoin="bevel" stroke-width="2"/>
      </g>
      <g id="Line_156">
        <line x1="-249.49204" y1="-100.8581" x2="-197.64598" y2="-154.192" marker-end="url(#FilledArrow_Marker)" stroke="#76d6ff" stroke-linecap="square" stroke-linejoin="bevel" stroke-width="2"/>
      </g>
      <g id="Line_176">
        <line x1="-27.492044" y1="-191" x2="11.392044" y2="-191" marker-end="url(#FilledArrow_Marker)" stroke="#76d6ff" stroke-linecap="square" stroke-linejoin="bevel" stroke-width="2"/>
      </g>
      <g id="Line_177">
        <line x1="-38" y1="-72" x2="13.846064" y2="-125.3339" marker-end="url(#FilledArrow_Marker)" stroke="#76d6ff" stroke-linecap="square" stroke-linejoin="bevel" stroke-width="2"/>
      </g>
      <g id="Group_364">
        <g id="Graphic_375"/>
        <g id="Graphic_374">
          <path d="M -489 -293 L -506.33333 -283 L -506.33333 -237.33333 L -489 -227.33333 L -489 -236 L -499 -241.66667 L -499 -278.66667 L -489 -284.33333 Z" fill="#5c85de"/>
        </g>
        <g id="Graphic_373">
          <path d="M -506.33333 -274.33333 L -506.33333 -246 L -499 -241.66667 L -499 -278.66667 Z" fill="#3367d6"/>
        </g>
        <g id="Graphic_372">
          <path d="M -506.33333 -274.33333 L -499 -276 L -499 -278.66667 Z" fill="#3367d6"/>
        </g>
        <g id="Graphic_371">
          <path d="M -449 -293 L -449 -284.33333 L -439 -278.66667 L -439 -241.66667 L -449 -236 L -449 -227.33333 L -431.66667 -237.33333 L -431.66667 -283 Z" fill="#5c85de"/>
        </g>
        <g id="Graphic_370">
          <path d="M -439 -241.66667 L -431.66667 -246 L -431.66667 -274.33333 L -439 -278.66667 Z" fill="#3267d6"/>
        </g>
        <g id="Graphic_369">
          <path d="M -439 -276 L -431.66667 -274.33333 L -439 -278.66667 Z" fill="#3267d6"/>
        </g>
        <g id="Graphic_368">
          <path d="M -439 -244 L -439 -241.66667 L -431.66667 -246 Z" fill="#3267d6"/>
        </g>
        <g id="Graphic_367">
          <path d="M -469 -271.66667 L -479 -266.33333 L -469 -261 L -459 -266.33333 Z" fill="#c0c0ff"/>
        </g>
        <g id="Graphic_366">
          <path d="M -467.66667 -248.66667 L -458 -254 L -458 -264.33333 L -467.66667 -259 Z" fill="#3267d6"/>
        </g>
        <g id="Graphic_365">
          <path d="M -470 -259 L -480 -264.33333 L -480 -254 L -470 -248.66667 Z" fill="#3267d6"/>
        </g>
      </g>
      <g id="Group_376">
        <g id="Graphic_387"/>
        <g id="Graphic_386">
          <path d="M -489 -66 L -506.33333 -56 L -506.33333 -10.333333 L -489 -.33333333 L -489 -9 L -499 -14.666667 L -499 -51.666667 L -489 -57.33333 Z" fill="#5c85de"/>
        </g>
        <g id="Graphic_385">
          <path d="M -506.33333 -47.333333 L -506.33333 -19 L -499 -14.666667 L -499 -51.666667 Z" fill="#3367d6"/>
        </g>
        <g id="Graphic_384">
          <path d="M -506.33333 -47.333333 L -499 -49 L -499 -51.666667 Z" fill="#3367d6"/>
        </g>
        <g id="Graphic_383">
          <path d="M -449 -66 L -449 -57.33333 L -439 -51.666667 L -439 -14.666667 L -449 -9 L -449 -.33333333 L -431.66667 -10.333333 L -431.66667 -56 Z" fill="#5c85de"/>
        </g>
        <g id="Graphic_382">
          <path d="M -439 -14.666667 L -431.66667 -19 L -431.66667 -47.333333 L -439 -51.666667 Z" fill="#3267d6"/>
        </g>
        <g id="Graphic_381">
          <path d="M -439 -49 L -431.66667 -47.333333 L -439 -51.666667 Z" fill="#3267d6"/>
        </g>
        <g id="Graphic_380">
          <path d="M -439 -17 L -439 -14.666667 L -431.66667 -19 Z" fill="#3267d6"/>
        </g>
        <g id="Graphic_379">
          <path d="M -469 -44.666667 L -479 -39.333333 L -469 -34 L -459 -39.333333 Z" fill="#c0c0ff"/>
        </g>
        <g id="Graphic_378">
          <path d="M -467.66667 -21.666667 L -458 -27 L -458 -37.333333 L -467.66667 -32 Z" fill="#3267d6"/>
        </g>
        <g id="Graphic_377">
          <path d="M -470 -32 L -480 -37.333333 L -480 -27 L -470 -21.666667 Z" fill="#3267d6"/>
        </g>
      </g>
      <g id="Group_388">
        <g id="Graphic_399"/>
        <g id="Graphic_398">
          <path d="M -324 -219 L -341.33333 -209 L -341.33333 -163.33333 L -324 -153.33333 L -324 -162 L -334 -167.66667 L -334 -204.66667 L -324 -210.33333 Z" fill="#5c85de"/>
        </g>
        <g id="Graphic_397">
          <path d="M -341.33333 -200.33333 L -341.33333 -172 L -334 -167.66667 L -334 -204.66667 Z" fill="#3367d6"/>
        </g>
        <g id="Graphic_396">
          <path d="M -341.33333 -200.33333 L -334 -202 L -334 -204.66667 Z" fill="#3367d6"/>
        </g>
        <g id="Graphic_395">
          <path d="M -284 -219 L -284 -210.33333 L -274 -204.66667 L -274 -167.66667 L -284 -162 L -284 -153.33333 L -266.66667 -163.33333 L -266.66667 -209 Z" fill="#5c85de"/>
        </g>
        <g id="Graphic_394">
          <path d="M -274 -167.66667 L -266.66667 -172 L -266.66667 -200.33333 L -274 -204.66667 Z" fill="#3267d6"/>
        </g>
        <g id="Graphic_393">
          <path d="M -274 -202 L -266.66667 -200.33333 L -274 -204.66667 Z" fill="#3267d6"/>
        </g>
        <g id="Graphic_392">
          <path d="M -274 -170 L -274 -167.66667 L -266.66667 -172 Z" fill="#3267d6"/>
        </g>
        <g id="Graphic_391">
          <path d="M -304 -197.66667 L -314 -192.33333 L -304 -187 L -294 -192.33333 Z" fill="#c0c0ff"/>
        </g>
        <g id="Graphic_390">
          <path d="M -302.66667 -174.66667 L -293 -180 L -293 -190.33333 L -302.66667 -185 Z" fill="#3267d6"/>
        </g>
        <g id="Graphic_389">
          <path d="M -305 -185 L -315 -190.33333 L -315 -180 L -305 -174.66667 Z" fill="#3267d6"/>
        </g>
      </g>
      <g id="Group_400">
        <g id="Graphic_411"/>
        <g id="Graphic_410">
          <path d="M -324 -139 L -341.33333 -129 L -341.33333 -83.33333 L -324 -73.33333 L -324 -82 L -334 -87.66667 L -334 -124.66667 L -324 -130.33333 Z" fill="#5c85de"/>
        </g>
        <g id="Graphic_409">
          <path d="M -341.33333 -120.33333 L -341.33333 -92 L -334 -87.66667 L -334 -124.66667 Z" fill="#3367d6"/>
        </g>
        <g id="Graphic_408">
          <path d="M -341.33333 -120.33333 L -334 -122 L -334 -124.66667 Z" fill="#3367d6"/>
        </g>
        <g id="Graphic_407">
          <path d="M -284 -139 L -284 -130.33333 L -274 -124.66667 L -274 -87.66667 L -284 -82 L -284 -73.33333 L -266.66667 -83.33333 L -266.66667 -129 Z" fill="#5c85de"/>
        </g>
        <g id="Graphic_406">
          <path d="M -274 -87.66667 L -266.66667 -92 L -266.66667 -120.33333 L -274 -124.66667 Z" fill="#3267d6"/>
        </g>
        <g id="Graphic_405">
          <path d="M -274 -122 L -266.66667 -120.33333 L -274 -124.66667 Z" fill="#3267d6"/>
        </g>
        <g id="Graphic_404">
          <path d="M -274 -90 L -274 -87.66667 L -266.66667 -92 Z" fill="#3267d6"/>
        </g>
        <g id="Graphic_403">
          <path d="M -304 -117.66667 L -314 -112.33333 L -304 -107 L -294 -112.33333 Z" fill="#c0c0ff"/>
        </g>
        <g id="Graphic_402">
          <path d="M -302.66667 -94.66667 L -293 -100 L -293 -110.33333 L -302.66667 -105 Z" fill="#3267d6"/>
        </g>
        <g id="Graphic_401">
          <path d="M -305 -105 L -315 -110.33333 L -315 -100 L -305 -94.66667 Z" fill="#3267d6"/>
        </g>
      </g>
      <g id="Group_412">
        <g id="Graphic_428"/>
        <g id="Graphic_427">
          <path d="M -324 -66 L -341.33333 -56 L -341.33333 -10.333333 L -324 -.33333333 L -324 -9 L -334 -14.666667 L -334 -51.666667 L -324 -57.33333 Z" fill="#5c85de"/>
        </g>
        <g id="Graphic_426">
          <path d="M -341.33333 -47.333333 L -341.33333 -19 L -334 -14.666667 L -334 -51.666667 Z" fill="#3367d6"/>
        </g>
        <g id="Graphic_425">
          <path d="M -341.33333 -47.333333 L -334 -49 L -334 -51.666667 Z" fill="#3367d6"/>
        </g>
        <g id="Graphic_424">
          <path d="M -284 -66 L -284 -57.33333 L -274 -51.666667 L -274 -14.666667 L -284 -9 L -284 -.33333333 L -266.66667 -10.333333 L -266.66667 -56 Z" fill="#5c85de"/>
        </g>
        <g id="Graphic_423">
          <path d="M -274 -14.666667 L -266.66667 -19 L -266.66667 -47.333333 L -274 -51.666667 Z" fill="#3267d6"/>
        </g>
        <g id="Graphic_422">
          <path d="M -274 -49 L -266.66667 -47.333333 L -274 -51.666667 Z" fill="#3267d6"/>
        </g>
        <g id="Graphic_421">
          <path d="M -274 -17 L -274 -14.666667 L -266.66667 -19 Z" fill="#3267d6"/>
        </g>
        <g id="Group_417">
          <g id="Graphic_420">
            <path d="M -314.9756 -44.666667 L -324.9756 -39.333333 L -314.9756 -34 L -304.9756 -39.333333 Z" fill="#c0c0ff"/>
          </g>
          <g id="Graphic_419">
            <path d="M -313.64228 -21.666667 L -303.9756 -27 L -303.9756 -37.333333 L -313.64228 -32 Z" fill="#3267d6"/>
          </g>
          <g id="Graphic_418">
            <path d="M -315.9756 -32 L -325.9756 -37.333333 L -325.9756 -27 L -315.9756 -21.666667 Z" fill="#3267d6"/>
          </g>
        </g>
        <g id="Group_413">
          <g id="Graphic_416">
            <path d="M -290.97434 -45.5 L -300.97434 -40.166667 L -290.97434 -34.833333 L -280.97434 -40.166667 Z" fill="#c0c0ff"/>
          </g>
          <g id="Graphic_415">
            <path d="M -289.641 -22.5 L -279.97434 -27.833333 L -279.97434 -38.166667 L -289.641 -32.833333 Z" fill="#3267d6"/>
          </g>
          <g id="Graphic_414">
            <path d="M -291.97434 -32.833333 L -301.97434 -38.166667 L -301.97434 -27.833333 L -291.97434 -22.5 Z" fill="#3267d6"/>
          </g>
        </g>
      </g>
      <g id="Group_429">
        <g id="Graphic_450"/>
        <g id="Graphic_449">
          <path d="M -127 -66 L -144.33333 -56 L -144.33333 -10.333333 L -127 -.33333333 L -127 -9 L -137 -14.666667 L -137 -51.666667 L -127 -57.33333 Z" fill="#5c85de"/>
        </g>
        <g id="Graphic_448">
          <path d="M -144.33333 -47.333333 L -144.33333 -19 L -137 -14.666667 L -137 -51.666667 Z" fill="#3367d6"/>
        </g>
        <g id="Graphic_447">
          <path d="M -144.33333 -47.333333 L -137 -49 L -137 -51.666667 Z" fill="#3367d6"/>
        </g>
        <g id="Graphic_446">
          <path d="M -87 -66 L -87 -57.33333 L -77 -51.666667 L -77 -14.666667 L -87 -9 L -87 -.33333333 L -69.66667 -10.333333 L -69.66667 -56 Z" fill="#5c85de"/>
        </g>
        <g id="Graphic_445">
          <path d="M -77 -14.666667 L -69.66667 -19 L -69.66667 -47.333333 L -77 -51.666667 Z" fill="#3367d6"/>
        </g>
        <g id="Graphic_444">
          <path d="M -77 -49 L -69.66667 -47.333333 L -77 -51.666667 Z" fill="#3367d6"/>
        </g>
        <g id="Graphic_443">
          <path d="M -77 -17 L -77 -14.666667 L -69.66667 -19 Z" fill="#3367d6"/>
        </g>
        <g id="Group_430">
          <g id="Group_439">
            <g id="Graphic_442">
              <path d="M -107 -55.666667 L -117 -50.333333 L -107 -45 L -97 -50.333333 Z" fill="#5c85de"/>
            </g>
            <g id="Graphic_441">
              <path d="M -105.66667 -32.666667 L -96 -38 L -96 -48.333333 L -105.66667 -43 Z" fill="#3367d6"/>
            </g>
            <g id="Graphic_440">
              <path d="M -108 -43 L -118 -48.333333 L -118 -38 L -108 -32.666667 Z" fill="#3367d6"/>
            </g>
          </g>
          <g id="Group_435">
            <g id="Graphic_438">
              <path d="M -118.46667 -36.079367 L -128.13333 -30.746033 L -118.46667 -25.4127 L -109.13333 -30.746033 Z" fill="#5c85de"/>
            </g>
            <g id="Graphic_437">
              <path d="M -117.8 -13.079367 L -108.13333 -18.4127 L -108.13333 -29.079367 L -117.8 -23.746033 Z" fill="#3367d6"/>
            </g>
            <g id="Graphic_436">
              <path d="M -119.46667 -23.746033 L -129.13333 -29.079367 L -129.13333 -18.4127 L -119.46667 -13.079367 Z" fill="#3367d6"/>
            </g>
          </g>
          <g id="Group_431">
            <g id="Graphic_434">
              <path d="M -95.26667 -36.079367 L -104.93333 -30.746033 L -95.26667 -25.4127 L -85.6 -30.746033 Z" fill="#5c85de"/>
            </g>
            <g id="Graphic_433">
              <path d="M -94.26667 -13.079367 L -84.6 -18.4127 L -84.6 -29.079367 L -94.26667 -23.746033 Z" fill="#3367d6"/>
            </g>
            <g id="Graphic_432">
              <path d="M -96.26667 -23.746033 L -105.93333 -29.079367 L -105.93333 -18.4127 L -96.26667 -13.079367 Z" fill="#3367d6"/>
            </g>
          </g>
        </g>
      </g>
      <g id="Group_451">
        <g id="Graphic_478">
          <path d="M -150.45257 -227.5078 L -171.4394 -215.40002 L -171.4394 -160.10779 L -150.45257 -148 L -150.45257 -158.49342 L -162.56035 -165.3545 L -162.56035 -210.15332 L -150.45257 -217.0144 Z" fill="#5c85de"/>
        </g>
        <g id="Graphic_477">
          <path d="M -171.4394 -204.9066 L -171.4394 -170.6012 L -162.56035 -165.3545 L -162.56035 -210.15332 Z" fill="#3367d6"/>
        </g>
        <g id="Graphic_476">
          <path d="M -171.4394 -204.9066 L -162.56035 -206.92457 L -162.56035 -210.15332 Z" fill="#3367d6"/>
        </g>
        <g id="Graphic_475">
          <path d="M -69.98683 -228 L -69.98683 -217.50658 L -57.879045 -210.6455 L -57.879045 -165.84668 L -69.98683 -158.9856 L -69.98683 -148.49219 L -49 -160.59998 L -49 -215.8922 Z" fill="#5c85de"/>
        </g>
        <g id="Graphic_474">
          <path d="M -57.879045 -165.84668 L -49 -171.0934 L -49 -205.3988 L -57.879045 -210.6455 Z" fill="#3267d6"/>
        </g>
        <g id="Graphic_473">
          <path d="M -57.879045 -207.41676 L -49 -205.3988 L -57.879045 -210.6455 Z" fill="#3267d6"/>
        </g>
        <g id="Graphic_472">
          <path d="M -57.879045 -168.67183 L -57.879045 -165.84668 L -49 -171.0934 Z" fill="#3267d6"/>
        </g>
        <g id="Group_468">
          <g id="Graphic_471">
            <path d="M -139.52602 -190.84976 L -151.63381 -184.39227 L -139.52602 -177.93479 L -127.41824 -184.39227 Z" fill="#c0c0ff"/>
          </g>
          <g id="Graphic_470">
            <path d="M -137.91165 -163.00185 L -126.20746 -169.45933 L -126.20746 -181.97071 L -137.91165 -175.51323 Z" fill="#3267d6"/>
          </g>
          <g id="Graphic_469">
            <path d="M -140.7368 -175.51323 L -152.8446 -181.97071 L -152.8446 -169.45933 L -140.7368 -163.00185 Z" fill="#3267d6"/>
          </g>
        </g>
        <g id="Group_464">
          <g id="Graphic_467">
            <path d="M -110.46579 -191.85874 L -122.57358 -185.40126 L -110.46579 -178.94377 L -98.358 -185.40126 Z" fill="#c0c0ff"/>
          </g>
          <g id="Graphic_466">
            <path d="M -108.85142 -164.01083 L -97.14723 -170.46832 L -97.14723 -182.9797 L -108.85142 -176.5222 Z" fill="#3267d6"/>
          </g>
          <g id="Graphic_465">
            <path d="M -111.67657 -176.5222 L -123.78436 -182.9797 L -123.78436 -170.46832 L -111.67657 -164.01083 Z" fill="#3267d6"/>
          </g>
        </g>
        <g id="Group_460">
          <g id="Graphic_463">
            <path d="M -81.61951 -191.85874 L -93.7273 -185.40126 L -81.61951 -178.94377 L -69.51172 -185.40126 Z" fill="#c0c0ff"/>
          </g>
          <g id="Graphic_462">
            <path d="M -80.00514 -164.01083 L -68.30094 -170.46832 L -68.30094 -182.9797 L -80.00514 -176.5222 Z" fill="#3267d6"/>
          </g>
          <g id="Graphic_461">
            <path d="M -82.83029 -176.5222 L -94.93808 -182.9797 L -94.93808 -170.46832 L -82.83029 -164.01083 Z" fill="#3267d6"/>
          </g>
        </g>
        <g id="Group_456">
          <g id="Graphic_459">
            <path d="M -125.25261 -214.66082 L -137.3604 -208.20333 L -125.25261 -201.74585 L -113.14483 -208.20333 Z" fill="#c0c0ff"/>
          </g>
          <g id="Graphic_458">
            <path d="M -123.63824 -186.8129 L -111.93405 -193.2704 L -111.93405 -205.78178 L -123.63824 -199.3243 Z" fill="#3267d6"/>
          </g>
          <g id="Graphic_457">
            <path d="M -126.4634 -199.3243 L -138.57118 -205.78178 L -138.57118 -193.2704 L -126.4634 -186.8129 Z" fill="#3267d6"/>
          </g>
        </g>
        <g id="Group_452">
          <g id="Graphic_455">
            <path d="M -96.64673 -214.66082 L -108.75452 -208.20333 L -96.64673 -201.74585 L -84.53894 -208.20333 Z" fill="#c0c0ff"/>
          </g>
          <g id="Graphic_454">
            <path d="M -95.03236 -186.8129 L -83.32817 -193.2704 L -83.32817 -205.78178 L -95.03236 -199.3243 Z" fill="#3267d6"/>
          </g>
          <g id="Graphic_453">
            <path d="M -97.85751 -199.3243 L -109.9653 -205.78178 L -109.9653 -193.2704 L -97.85751 -186.8129 Z" fill="#3267d6"/>
          </g>
        </g>
      </g>
      <g id="Group_479">
        <g id="Group_521">
          <g id="Graphic_524">
            <path d="M 70.865795 -226.04926 L 50 -214.0113 L 50 -159.03796 L 70.865795 -147 L 70.865795 -157.4329 L 58.827836 -164.2544 L 58.827836 -208.79485 L 70.865795 -215.61636 Z" fill="#5c85de"/>
          </g>
          <g id="Graphic_523">
            <path d="M 50 -203.5784 L 50 -169.47086 L 58.827836 -164.2544 L 58.827836 -208.79485 Z" fill="#3367d6"/>
          </g>
          <g id="Graphic_522">
            <path d="M 50 -203.5784 L 58.827836 -205.58473 L 58.827836 -208.79485 Z" fill="#3367d6"/>
          </g>
        </g>
        <g id="Group_516">
          <g id="Graphic_520">
            <path d="M 191.97746 -226.04926 L 191.97746 -215.61636 L 204.01542 -208.79485 L 204.01542 -164.2544 L 191.97746 -157.4329 L 191.97746 -147 L 212.84325 -159.03796 L 212.84325 -214.0113 Z" fill="#5c85de"/>
          </g>
          <g id="Graphic_519">
            <path d="M 204.01542 -164.2544 L 212.84325 -169.47086 L 212.84325 -203.5784 L 204.01542 -208.79485 Z" fill="#3267d6"/>
          </g>
          <g id="Graphic_518">
            <path d="M 204.01542 -205.58473 L 212.84325 -203.5784 L 204.01542 -208.79485 Z" fill="#3267d6"/>
          </g>
          <g id="Graphic_517">
            <path d="M 204.01542 -167.06326 L 204.01542 -164.2544 L 212.84325 -169.47086 Z" fill="#3267d6"/>
          </g>
        </g>
        <g id="Group_512">
          <g id="Graphic_515">
            <path d="M 88.04499 -180.46914 L 76.00703 -174.0489 L 88.04499 -167.62865 L 100.08295 -174.0489 Z" fill="#c0c0ff"/>
          </g>
          <g id="Graphic_514">
            <path d="M 89.65005 -152.78184 L 101.28675 -159.20208 L 101.28675 -171.6413 L 89.65005 -165.22106 Z" fill="#3267d6"/>
          </g>
          <g id="Graphic_513">
            <path d="M 86.8412 -165.22106 L 74.80324 -171.6413 L 74.80324 -159.20208 L 86.8412 -152.78184 Z" fill="#3267d6"/>
          </g>
        </g>
        <g id="Group_508">
          <g id="Graphic_511">
            <path d="M 116.93762 -181.4723 L 104.89966 -175.05206 L 116.93762 -168.63182 L 128.97558 -175.05206 Z" fill="#c0c0ff"/>
          </g>
          <g id="Graphic_510">
            <path d="M 118.54268 -153.785 L 130.17938 -160.20524 L 130.17938 -172.64447 L 118.54268 -166.22422 Z" fill="#3267d6"/>
          </g>
          <g id="Graphic_509">
            <path d="M 115.73383 -166.22422 L 103.69587 -172.64447 L 103.69587 -160.20524 L 115.73383 -153.785 Z" fill="#3267d6"/>
          </g>
        </g>
        <g id="Group_504">
          <g id="Graphic_507">
            <path d="M 145.61754 -181.4723 L 133.57958 -175.05206 L 145.61754 -168.63182 L 157.6555 -175.05206 Z" fill="#c0c0ff"/>
          </g>
          <g id="Graphic_506">
            <path d="M 147.2226 -153.785 L 158.8593 -160.20524 L 158.8593 -172.64447 L 147.2226 -166.22422 Z" fill="#3267d6"/>
          </g>
          <g id="Graphic_505">
            <path d="M 144.41374 -166.22422 L 132.37578 -172.64447 L 132.37578 -160.20524 L 144.41374 -153.785 Z" fill="#3267d6"/>
          </g>
        </g>
        <g id="Group_500">
          <g id="Graphic_503">
            <path d="M 102.23608 -204.14288 L 90.19812 -197.72263 L 102.23608 -191.30239 L 114.27404 -197.72263 Z" fill="#c0c0ff"/>
          </g>
          <g id="Graphic_502">
            <path d="M 103.84114 -176.45557 L 115.47784 -182.87582 L 115.47784 -195.31504 L 103.84114 -188.8948 Z" fill="#3267d6"/>
          </g>
          <g id="Graphic_501">
            <path d="M 101.03229 -188.8948 L 88.99433 -195.31504 L 88.99433 -182.87582 L 101.03229 -176.45557 Z" fill="#3267d6"/>
          </g>
        </g>
        <g id="Group_496">
          <g id="Graphic_499">
            <path d="M 130.67698 -204.14288 L 118.63902 -197.72263 L 130.67698 -191.30239 L 142.71494 -197.72263 Z" fill="#c0c0ff"/>
          </g>
          <g id="Graphic_498">
            <path d="M 132.28204 -176.45557 L 143.91874 -182.87582 L 143.91874 -195.31504 L 132.28204 -188.8948 Z" fill="#3267d6"/>
          </g>
          <g id="Graphic_497">
            <path d="M 129.47319 -188.8948 L 117.43523 -195.31504 L 117.43523 -182.87582 L 129.47319 -176.45557 Z" fill="#3267d6"/>
          </g>
        </g>
        <g id="Group_492">
          <g id="Graphic_495">
            <path d="M 116.64005 -227 L 104.60209 -220.57976 L 116.64005 -214.1595 L 128.678 -220.57976 Z" fill="#c0c0ff"/>
          </g>
          <g id="Graphic_494">
            <path d="M 118.2451 -199.3127 L 129.8818 -205.73294 L 129.8818 -218.17216 L 118.2451 -211.75192 Z" fill="#3267d6"/>
          </g>
          <g id="Graphic_493">
            <path d="M 115.43625 -211.75192 L 103.39829 -218.17216 L 103.39829 -205.73294 L 115.43625 -199.3127 Z" fill="#3267d6"/>
          </g>
        </g>
        <g id="Group_488">
          <g id="Graphic_491">
            <path d="M 173.81456 -181.4723 L 161.7766 -175.05206 L 173.81456 -168.63182 L 185.85252 -175.05206 Z" fill="#c0c0ff"/>
          </g>
          <g id="Graphic_490">
            <path d="M 175.41962 -153.785 L 187.05631 -160.20524 L 187.05631 -172.64447 L 175.41962 -166.22422 Z" fill="#3267d6"/>
          </g>
          <g id="Graphic_489">
            <path d="M 172.61076 -166.22422 L 160.5728 -172.64447 L 160.5728 -160.20524 L 172.61076 -153.785 Z" fill="#3267d6"/>
          </g>
        </g>
        <g id="Group_484">
          <g id="Graphic_487">
            <path d="M 159.11788 -204.14288 L 147.07992 -197.72263 L 159.11788 -191.30239 L 171.15584 -197.72263 Z" fill="#c0c0ff"/>
          </g>
          <g id="Graphic_486">
            <path d="M 160.72294 -176.45557 L 172.35964 -182.87582 L 172.35964 -195.31504 L 160.72294 -188.8948 Z" fill="#3267d6"/>
          </g>
          <g id="Graphic_485">
            <path d="M 157.91409 -188.8948 L 145.87613 -195.31504 L 145.87613 -182.87582 L 157.91409 -176.45557 Z" fill="#3267d6"/>
          </g>
        </g>
        <g id="Group_480">
          <g id="Graphic_483">
            <path d="M 145.33092 -227 L 133.29296 -220.57976 L 145.33092 -214.1595 L 157.36888 -220.57976 Z" fill="#c0c0ff"/>
          </g>
          <g id="Graphic_482">
            <path d="M 146.93598 -199.3127 L 158.57267 -205.73294 L 158.57267 -218.17216 L 146.93598 -211.75192 Z" fill="#3267d6"/>
          </g>
          <g id="Graphic_481">
            <path d="M 144.12712 -211.75192 L 132.08917 -218.17216 L 132.08917 -205.73294 L 144.12712 -199.3127 Z" fill="#3267d6"/>
          </g>
        </g>
      </g>
    </g>
  </g>
</svg>
